<?xml version="1.0" encoding="UTF-8"?>
<svg xmlns="http://www.w3.org/2000/svg" width="127" height="32" viewBox="0 0 127 32" fill="none">
  <g clip-path="url(#clip0_39890_539)">
    <mask id="mask0_39890_539" style="mask-type:luminance" maskUnits="userSpaceOnUse" x="0" y="0" width="127" height="32">
      <path d="M127 0H0V32H127V0Z" fill="white"></path>
    </mask>
    <g mask="url(#mask0_39890_539)">
      <path d="M30.6604 1.2826C30.6358 1.33604 30.6111 1.38949 30.5887 1.44293C30.4071 1.87976 30.3017 2.35841 30.2815 2.86494C30.2591 3.36683 30.3308 3.92216 30.4967 4.51234C30.647 5.04676 30.8577 5.66715 31.1403 6.41766L38.4857 25.0038L39.4341 27.3924C39.7346 28.1173 40.0059 28.7122 40.266 29.2094C40.5463 29.7508 40.8714 30.1969 41.2256 30.5362C41.5866 30.8847 41.9857 31.1496 42.4118 31.3238C42.4656 31.3471 42.5194 31.368 42.5732 31.3866C42.544 31.3866 42.5149 31.3866 42.4857 31.3866C42.1113 31.3866 41.6696 31.3401 41.1673 31.2472C40.6965 31.1612 40.2054 30.966 39.7032 30.6686C39.1987 30.3689 38.6942 29.9158 38.2009 29.3256C37.7099 28.7377 37.2816 27.9361 36.9251 26.9416C36.9229 26.9346 36.9206 26.93 36.9184 26.923L29.6626 8.57392C29.6604 8.56695 29.6582 8.5623 29.6537 8.55533C29.2344 7.59105 28.9967 6.7081 28.9474 5.92971C28.8981 5.15132 28.9519 4.46123 29.1088 3.88034C29.2613 3.3041 29.4788 2.80918 29.7546 2.40488C30.0618 1.95643 30.3375 1.61022 30.5999 1.34534C30.6201 1.3221 30.6402 1.30351 30.6604 1.2826ZM31.3398 0C30.9654 0.20912 30.5819 0.511182 30.1918 0.915481C29.9003 1.21057 29.5999 1.58931 29.2815 2.05402C28.9653 2.51641 28.7187 3.07174 28.5483 3.72001C28.3734 4.36828 28.3128 5.11879 28.3667 5.96921C28.4227 6.81963 28.6738 7.76532 29.1245 8.80395L36.378 27.1554C36.7614 28.2219 37.2211 29.0793 37.7614 29.7252C38.2996 30.3712 38.8512 30.8591 39.4139 31.196C39.9767 31.5306 40.5261 31.7467 41.0664 31.8466C41.6068 31.9466 42.0799 31.9953 42.4857 31.9953C43.0351 31.9953 43.5149 31.9349 43.9208 31.8095V31.0659C43.4185 31.0148 42.988 30.9149 42.627 30.7662C42.266 30.6175 41.9319 30.3944 41.6203 30.097C41.3086 29.7996 41.0283 29.4092 40.7772 28.9259C40.5261 28.4426 40.257 27.8525 39.9678 27.1577L39.0216 24.7761L31.6761 6.19227C31.4116 5.48824 31.203 4.87249 31.0528 4.34505C30.9048 3.8176 30.8398 3.3343 30.86 2.89515C30.8779 2.45832 30.9654 2.05402 31.1201 1.68458C31.277 1.31978 31.5147 0.934069 31.8398 0.532094L31.3398 0Z" fill="white"/>
      <path d="M25.4575 6.6966C25.3768 6.97543 25.3275 7.27052 25.314 7.57723C25.2938 8.00476 25.3544 8.47877 25.4979 8.99227C25.6234 9.43839 25.8006 9.95887 26.0405 10.5978L32.1975 26.175L32.9935 28.1802C33.2469 28.7936 33.4778 29.2955 33.6931 29.7114C33.9352 30.1785 34.2133 30.5618 34.5182 30.85C34.7357 31.0591 34.9711 31.2357 35.22 31.3751C35.0182 31.3565 34.7962 31.324 34.5496 31.2798C34.1662 31.2101 33.7648 31.0498 33.3523 30.8035C32.9464 30.5642 32.5316 30.1924 32.1191 29.7021C31.7155 29.2165 31.3612 28.5543 31.0652 27.7317C31.063 27.7248 31.0607 27.7201 31.0585 27.7132L24.9754 12.3289C24.9732 12.3219 24.9709 12.3173 24.9687 12.3103C24.6234 11.5133 24.4261 10.7837 24.3857 10.1424C24.3454 9.49881 24.3902 8.93186 24.518 8.45785C24.6413 7.9885 24.8207 7.58187 25.0472 7.25193C25.1884 7.04281 25.3275 6.85692 25.4575 6.6966ZM26.2961 5.18164C25.9799 5.35823 25.6615 5.6115 25.3319 5.94841C25.0898 6.19471 24.8364 6.51304 24.5718 6.90339C24.305 7.29143 24.101 7.75614 23.9575 8.29985C23.8095 8.84356 23.7602 9.47325 23.805 10.1843C23.8521 10.8999 24.0606 11.6922 24.4373 12.5613L30.5204 27.9455C30.841 28.8401 31.2267 29.5581 31.6796 30.0994C32.1325 30.6385 32.5899 31.0521 33.0653 31.3309C33.5361 31.6121 33.998 31.7933 34.4487 31.877C34.9016 31.9583 35.2962 32.0024 35.6393 32.0024C36.099 32.0024 36.5025 31.9513 36.8434 31.8468V31.224C36.4218 31.1822 36.0608 31.0986 35.7604 30.9731C35.4577 30.8476 35.1774 30.6617 34.9173 30.4108C34.655 30.1622 34.4196 29.8322 34.2088 29.4279C33.998 29.0236 33.7716 28.5287 33.5316 27.9455L32.7379 25.9496L26.5808 10.3725C26.3589 9.78228 26.184 9.26645 26.0584 8.82498C25.9351 8.3835 25.879 7.97688 25.897 7.60976C25.9127 7.24263 25.9867 6.9034 26.1167 6.59436C26.249 6.28998 26.4486 5.967 26.7199 5.63009L26.2961 5.18164Z" fill="white"/>
      <path d="M9.64367 1.3418C10.6078 1.3418 11.6773 1.41151 12.8522 1.55325C14.0272 1.69498 15.1146 2.00169 16.1169 2.47802C17.1191 2.95203 17.96 3.63051 18.6393 4.51346C19.3187 5.39873 19.6595 6.58374 19.6595 8.07082C19.6595 9.2233 19.2761 10.2944 18.5093 11.2796C17.7425 12.2671 16.5182 13.0548 14.8366 13.645C16.0474 13.8495 17.0429 14.1376 17.8232 14.5094C18.6012 14.8811 19.2246 15.3296 19.6954 15.8547C20.1663 16.3798 20.4936 16.9747 20.6775 17.6438C20.8636 18.3107 20.9555 19.0287 20.9555 19.7954C20.9555 21.2314 20.6394 22.4048 20.0093 23.3133C19.3793 24.2218 18.5743 24.9282 17.5967 25.4277C16.6191 25.9296 15.5249 26.2689 14.3142 26.4455C13.1034 26.6267 11.9173 26.715 10.7536 26.715H3.33862V5.95638C3.33862 4.8039 3.18391 3.87448 2.87449 3.16812C2.56507 2.46408 1.85429 2.1109 0.742166 2.1109H0V1.3418H9.64367ZM10.202 13.0688C10.9441 13.0688 11.6684 12.9595 12.3724 12.7411C13.0787 12.5227 13.7088 12.1974 14.2648 11.7606C14.8209 11.3261 15.2738 10.787 15.6191 10.1457C15.9644 9.50678 16.1393 8.7493 16.1393 7.87796C16.1393 6.95551 15.9285 6.16783 15.5092 5.51491C15.0877 4.86199 14.5563 4.32292 13.915 3.90004C13.2715 3.47715 12.5563 3.17044 11.7648 2.97759C10.971 2.78473 10.2065 2.68947 9.46429 2.68947C8.99567 2.68947 8.50688 2.72664 8.00014 2.80564C7.49341 2.88232 7.05394 2.97294 6.68397 3.07518V13.0711H10.202V13.0688ZM6.67725 14.6046V24.8306C7.24676 25.0118 7.83198 25.1443 8.43961 25.2349C9.045 25.3255 9.63246 25.3697 10.202 25.3697C12.4509 25.3697 14.1886 24.9073 15.4151 23.9848C16.6393 23.0624 17.2514 21.7286 17.2514 19.9883C17.2514 18.2456 16.6595 16.9119 15.4711 15.9895C14.2828 15.067 12.5271 14.6046 10.202 14.6046H6.67725Z" fill="white"/>
      <path d="M58.2634 20.2565C58.2634 21.3324 58.084 22.3082 57.7252 23.1773C57.3665 24.0486 56.853 24.7991 56.1871 25.4265C55.5189 26.0538 54.7095 26.5371 53.7566 26.8671C52.8036 27.2017 51.7341 27.3689 50.548 27.3689C49.5345 27.3689 48.5255 27.2597 47.5233 27.0413C46.521 26.8229 45.6174 26.5116 44.8147 26.1003C44.012 25.6913 43.355 25.1987 42.8483 24.6202C42.3415 24.0439 42.0882 23.398 42.0882 22.68V18.565H42.8303C43.2474 21.1534 44.0636 23.0123 45.2811 24.1392C46.4986 25.2661 48.1511 25.8308 50.2408 25.8308C50.8798 25.8308 51.4875 25.7471 52.0659 25.5798C52.6422 25.4125 53.1534 25.1639 53.5951 24.8293C54.0391 24.497 54.3933 24.0881 54.6646 23.6001C54.9359 23.1122 55.0705 22.5499 55.0705 21.9086C55.0705 20.7817 54.7297 19.822 54.0503 19.0274C53.3687 18.2327 52.3485 17.4265 50.9897 16.6062L46.4268 13.7994C44.8438 12.8258 43.7227 11.8383 43.068 10.8392C42.4133 9.84005 42.0859 8.62251 42.0859 7.18655C42.0859 6.18742 42.2586 5.29053 42.6061 4.49587C42.9514 3.70354 43.4402 3.01577 44.0703 2.43953C44.7003 1.86329 45.456 1.41949 46.3327 1.11278C47.2093 0.803745 48.1937 0.650391 49.2811 0.650391C50.1959 0.650391 51.1287 0.754951 52.0816 0.9571C53.0323 1.1639 53.8933 1.46363 54.6602 1.86096C55.4247 2.25829 56.057 2.74624 56.5503 3.32016C57.0458 3.8964 57.2947 4.54467 57.2947 5.26265V9.37534H56.5503C56.1333 6.7869 55.3328 4.942 54.1534 3.83831C52.974 2.73694 51.3395 2.18626 49.252 2.18626C48.7116 2.18626 48.1825 2.27688 47.6668 2.45579C47.1511 2.63703 46.6959 2.89262 46.3035 3.22489C45.9089 3.55716 45.5905 3.96843 45.3461 4.45405C45.0994 4.942 44.9784 5.47874 44.9784 6.06892C44.9784 6.63354 45.0636 7.13311 45.2385 7.56761C45.4111 8.00444 45.6712 8.41339 46.0165 8.7991C46.3618 9.18248 46.7945 9.56122 47.3147 9.93299C47.8349 10.3048 48.4269 10.6951 49.095 11.1064L53.6579 13.9132C54.4494 14.4012 55.1355 14.8682 55.7162 15.3143C56.297 15.7628 56.7745 16.2368 57.1445 16.7364C57.5167 17.2359 57.7925 17.768 57.9786 18.3326C58.1692 18.8996 58.2634 19.5409 58.2634 20.2565Z" fill="white"/>
      <path d="M50.5451 28.3963C49.785 28.3963 49.0204 28.3173 48.2603 28.2012C48.1415 28.4637 48.0249 28.71 47.9128 28.9238C47.6617 29.4071 47.3814 29.7975 47.0697 30.0949C46.7581 30.3946 46.424 30.6177 46.063 30.764C45.7042 30.9128 45.2737 31.0127 44.7715 31.0638V31.8073C45.1796 31.9328 45.6571 31.9932 46.2065 31.9932C46.6146 31.9932 47.0877 31.9444 47.6258 31.8445C48.1639 31.7446 48.7155 31.5285 49.2783 31.1939C49.8411 30.857 50.3926 30.369 50.9308 29.7231C51.2492 29.342 51.5317 28.8564 51.794 28.3243C51.3904 28.3685 50.9756 28.3963 50.5451 28.3963Z" fill="white"/>
      <path d="M62.3626 0.990234C63.0128 0.990234 63.5577 1.04832 63.9971 1.16683C64.4344 1.283 64.7864 1.51768 65.0487 1.86854C65.3133 2.2194 65.4949 2.70037 65.5936 3.31147C65.6945 3.92256 65.7438 4.70792 65.7438 5.66755V13.2633L73.6386 5.08202C74.1139 4.58942 74.5713 4.10148 75.0108 3.6205C75.448 3.14185 75.9121 2.70502 76.4009 2.31699C76.8897 1.92663 77.4279 1.61063 78.0176 1.362C78.605 1.11571 79.2754 0.992558 80.0288 0.992558H81.9078V1.96613C80.8808 1.96613 79.9705 2.15434 79.1835 2.53075C78.3942 2.90717 77.4839 3.62747 76.4592 4.69398L69.1273 12.2897L77.7732 21.6141C78.8001 22.7271 79.8853 23.6937 81.0243 24.5093C82.1634 25.3248 83.2105 25.7988 84.1634 25.9266V26.705C83.8876 26.8073 83.5558 26.9002 83.1679 26.9769C82.7777 27.0536 82.2957 27.0931 81.7194 27.0931C81.1925 27.0931 80.6477 27.035 80.0849 26.9188C79.5221 26.8003 78.9077 26.5679 78.244 26.2171C77.5803 25.8662 76.8718 25.3922 76.1184 24.7951C75.3673 24.1979 74.5399 23.4079 73.6363 22.4204L65.7416 13.8488V26.705H62.3581V5.66523C62.3581 4.49648 62.2011 3.55544 61.8872 2.83979C61.5733 2.12645 60.8536 1.76863 59.7258 1.76863H58.9746V0.990234H62.3626Z" fill="white"/>
      <path d="M108.58 5.66523C108.58 4.49648 108.341 3.55544 107.865 2.84211C107.388 2.12878 106.5 1.77095 105.197 1.77095H104.82V0.990234H107.264C108.491 0.990234 109.502 1.19936 110.289 1.61295C111.078 2.02887 111.762 2.60046 112.338 3.32773L125.496 20.2758V0.990234H127V27.0931H126.249L110.083 6.25076V26.705H108.578V5.66523H108.58Z" fill="white"/>
      <path d="M106.456 25.6106C106.079 25.455 105.73 25.2226 105.405 24.9089C105.079 24.5976 104.783 24.1886 104.521 23.6821C104.26 23.1755 103.976 22.5575 103.676 21.8302L95.4049 0.990234H94.2771L83.75 26.7027H84.176C84.7792 26.5075 85.3128 26.2473 85.7523 25.9383L88.4496 19.2999H98.9767L99.9162 21.8325C100.317 22.9502 100.799 23.8471 101.364 24.5209C101.927 25.1947 102.503 25.7082 103.093 26.0591C103.683 26.4099 104.259 26.6376 104.822 26.7422C105.384 26.8468 105.88 26.8979 106.306 26.8979C106.882 26.8979 107.382 26.8328 107.81 26.7027V25.9243C107.284 25.8709 106.833 25.7686 106.456 25.6106ZM89.0147 17.7431L93.7143 6.44594L98.2256 17.7431H89.0147Z" fill="white"/>
      <path d="M56.457 31.8329V31.3821C56.8045 31.5494 57.0937 31.6331 57.318 31.6331C57.4884 31.6331 57.6274 31.5843 57.7328 31.4913C57.8381 31.3984 57.8897 31.2729 57.8897 31.1219C57.8897 30.9964 57.8561 30.8895 57.7866 30.8012C57.7171 30.7129 57.5893 30.6153 57.4054 30.5061L57.1924 30.3783C56.9278 30.2227 56.744 30.0763 56.6341 29.9369C56.5265 29.7998 56.4727 29.6395 56.4727 29.4559C56.4727 29.2073 56.5601 29.0028 56.7327 28.8448C56.9054 28.6845 57.1251 28.6055 57.3942 28.6055C57.6319 28.6055 57.8852 28.6473 58.1498 28.7286V29.1445C57.8225 29.0121 57.5803 28.9447 57.4189 28.9447C57.2664 28.9447 57.1408 28.9865 57.0422 29.0702C56.9435 29.1538 56.8942 29.2607 56.8942 29.3862C56.8942 29.4931 56.9301 29.5883 57.0041 29.6697C57.0758 29.7533 57.2081 29.8509 57.4009 29.9648L57.6229 30.0949C57.8897 30.2529 58.0781 30.4016 58.1834 30.541C58.2888 30.6804 58.3426 30.85 58.3426 31.0475C58.3426 31.3264 58.244 31.5494 58.0444 31.719C57.8471 31.8887 57.5848 31.9723 57.2552 31.9723C57.0489 31.9746 56.7821 31.9258 56.457 31.8329Z" fill="white"/>
      <path d="M62.2608 31.892V29.0248H61.1621V28.6855H63.7967V29.0248H62.698V31.892H62.2608Z" fill="white"/>
      <path d="M66.8027 31.892V28.6855H68.5314V29.0248H67.2421V30.0541H68.3229V30.391H67.2421V31.5528H68.6233V31.892H66.8027Z" fill="white"/>
      <path d="M71.668 28.6859H72.1075V30.7097C72.1075 31.0327 72.1658 31.2651 72.2801 31.4114C72.3945 31.5578 72.5783 31.6322 72.8295 31.6322C73.0739 31.6322 73.2487 31.5625 73.3496 31.4254C73.4528 31.2883 73.5021 31.0536 73.5021 30.7237V28.6836H73.89V30.7167C73.89 30.9978 73.8631 31.2116 73.8115 31.3626C73.7577 31.5137 73.6636 31.6461 73.5245 31.76C73.3519 31.9017 73.1142 31.9714 72.8115 31.9714C72.4191 31.9714 72.1321 31.8692 71.946 31.6647C71.7599 31.4602 71.668 31.1396 71.668 30.7051V28.6859Z" fill="white"/>
      <path d="M77.2305 31.892V28.6855H78.9592V29.0248H77.6699V30.0541H78.7507V30.391H77.6699V31.5528H79.0511V31.892H77.2305Z" fill="white"/>
      <path d="M82.1191 31.892V28.6855H83.0563C83.3523 28.6855 83.581 28.7529 83.7402 28.89C83.8994 29.0248 83.9779 29.2223 83.9779 29.4825C83.9779 29.687 83.9241 29.8682 83.8142 30.0262C83.7043 30.1842 83.5519 30.3074 83.3523 30.391L84.386 31.892H83.8456L82.9644 30.5351H82.5563V31.892H82.1191ZM82.5541 30.1958H82.6976C82.9689 30.1958 83.1752 30.1401 83.3164 30.0262C83.4577 29.9124 83.5272 29.7451 83.5272 29.5243C83.5272 29.1921 83.2963 29.0248 82.8321 29.0248H82.5563V30.1958H82.5541Z" fill="white"/>
      <path d="M87.3984 31.892V28.6855H88.2011C88.5106 28.6855 88.7482 28.7459 88.9142 28.8668C89.0801 28.9876 89.1608 29.1619 89.1608 29.3919C89.1608 29.5778 89.107 29.7404 88.9949 29.8868C88.885 30.0309 88.7281 30.1424 88.524 30.2214C89.0308 30.3817 89.2841 30.6722 89.2841 31.0904C89.2841 31.2786 89.2281 31.4459 89.116 31.59C89.0308 31.7015 88.9276 31.7782 88.8088 31.8246C88.6899 31.8711 88.5218 31.892 88.3088 31.892H87.3984ZM87.8334 30.0936H87.9747C88.2101 30.0936 88.3917 30.0402 88.5195 29.9379C88.6473 29.8334 88.7124 29.687 88.7124 29.4941C88.7124 29.1804 88.4769 29.0248 88.0061 29.0248H87.8334V30.0936ZM87.8334 31.5528H87.9231C88.2437 31.5528 88.4523 31.5319 88.5464 31.4901C88.7281 31.4111 88.8178 31.2647 88.8178 31.0486C88.8178 30.8581 88.7348 30.7 88.5711 30.5723C88.4074 30.4445 88.2011 30.3817 87.9567 30.3817H87.8334V31.5528Z" fill="white"/>
      <path d="M92.4316 31.892V28.6855H94.1604V29.0248H92.8711V30.0541H93.9518V30.391H92.8711V31.5528H94.25V31.892H92.4316Z" fill="white"/>
      <path d="M97.3223 31.892V28.6855H98.2595C98.5555 28.6855 98.7842 28.7529 98.9434 28.89C99.1003 29.0248 99.1811 29.2223 99.1811 29.4825C99.1811 29.687 99.1272 29.8682 99.0174 30.0262C98.9075 30.1842 98.755 30.3074 98.5577 30.391L99.5914 31.892H99.0532L98.1721 30.5351H97.764V31.892H97.3223ZM97.7573 30.1958H97.9008C98.1721 30.1958 98.3784 30.1401 98.5196 30.0262C98.6609 29.9124 98.7304 29.7451 98.7304 29.5243C98.7304 29.1921 98.4994 29.0248 98.0353 29.0248H97.7595V30.1958H97.7573Z" fill="white"/>
      <path d="M102.236 31.892L103.465 28.6855H103.9L105.109 31.892H104.635L104.299 31.0044H102.987L102.647 31.892H102.236ZM103.111 30.6652H104.169L103.64 29.2804L103.111 30.6652Z" fill="white"/>
      <path d="M108.863 31.892V29.0248H107.764V28.6855H110.399V29.0248H109.3V31.892H108.863Z" fill="white"/>
      <path d="M113.378 28.6859H113.817V30.7097C113.817 31.0327 113.875 31.2651 113.99 31.4114C114.104 31.5578 114.288 31.6322 114.537 31.6322C114.781 31.6322 114.956 31.5625 115.057 31.4254C115.16 31.2883 115.209 31.0536 115.209 30.7237V28.6836H115.595V30.7167C115.595 30.9978 115.568 31.2116 115.517 31.3626C115.463 31.5137 115.369 31.6461 115.23 31.76C115.057 31.9017 114.819 31.9714 114.517 31.9714C114.124 31.9714 113.837 31.8692 113.651 31.6647C113.465 31.4602 113.373 31.1396 113.373 30.7051V28.6859H113.378Z" fill="white"/>
      <path d="M118.941 31.892V28.6855H119.372L120.93 31.1624V28.6855H121.307V31.892H120.879L119.318 29.4174V31.892H118.941Z" fill="white"/>
      <path d="M126.999 31.8073C126.625 31.9189 126.297 31.9746 126.017 31.9746C125.526 31.9746 125.147 31.8306 124.885 31.5401C124.623 31.252 124.49 30.8338 124.49 30.29C124.49 29.7556 124.625 29.342 124.892 29.0469C125.158 28.7519 125.533 28.6055 126.017 28.6055C126.329 28.6055 126.654 28.6543 126.995 28.7519V29.1724C126.569 29.0214 126.241 28.947 126.013 28.947C125.679 28.947 125.418 29.0632 125.235 29.3002C125.051 29.5349 124.957 29.8648 124.957 30.2947C124.957 30.7176 125.055 31.0475 125.253 31.2822C125.45 31.5192 125.728 31.6354 126.084 31.6354C126.23 31.6354 126.389 31.6075 126.558 31.5541V30.5108H126.997V31.8073H126.999Z" fill="white"/>
    </g>
  </g>
  <defs>
    <clipPath id="clip0_39890_539">
      <rect width="127" height="32" fill="white"></rect>
    </clipPath>
  </defs>
</svg>
